<?xml version="1.0" encoding="utf-8"?>
<!-- Generator: Adobe Illustrator 19.0.0, SVG Export Plug-In . SVG Version: 6.00 Build 0)  -->
<svg version="1.1" id="Layer_1" xmlns="http://www.w3.org/2000/svg" xmlns:xlink="http://www.w3.org/1999/xlink" x="0px" y="0px"
	 viewBox="184.5 82.8 707 569" style="enable-background:new 184.5 82.8 707 569;" xml:space="preserve">
<style type="text/css">
	.st0{fill:#46455B;}
	.st1{opacity:5.000000e-002;enable-background:new    ;}
	.st2{opacity:5.000000e-002;fill:#FFFFFF;enable-background:new    ;}
	.st3{fill:#2F2E41;}
	.st4{opacity:0.1;enable-background:new    ;}
	.st5{fill:#FBBEBE;}
	.st6{fill:#F86D70;}
	.st7{fill:#BBBDC8;}
	.st8{fill:#A0616A;}
	.st9{fill:#F98A8D;}
	.st10{fill:#FFE9B3;}
	.st11{opacity:0.15;enable-background:new    ;}
	.st12{fill:#FFFFFF;}
	.st13{fill:#FFB163;}
	.st14{opacity:0.1;}
</style>
<title>horror movie</title>
<rect x="237.5" y="440" class="st0" width="603" height="138.5"/>
<polygon class="st0" points="241.5,296.5 184.5,339.5 228.5,379.5 253.5,339.5 287.5,296.5 "/>
<polygon class="st0" points="830.5,348.5 822.5,339.5 771.5,310.5 818.5,309.5 891.5,339.5 861.5,358.5 "/>
<polygon class="st0" points="237.5,350.5 287.5,296.5 287.5,420.5 253.5,448.5 232.5,419.5 "/>
<polygon class="st0" points="831.5,372.5 822.5,339.5 805.5,317.5 771.5,310.5 771.5,448.5 840.5,448.5 "/>
<path class="st0" d="M298.5,259.5h466.9c8.6,0,15.6,7,15.6,15.5v0v142.5l0,0H283l0,0V275C283,266.5,290,259.5,298.5,259.5z"/>
<polygon class="st0" points="253.5,448.5 287.5,406.5 771.5,406.5 822.5,448.5 "/>
<polygon class="st1" points="253.5,448.5 287.5,406.5 771.5,406.5 822.5,448.5 "/>
<rect x="184.5" y="339.5" class="st0" width="69" height="239"/>
<rect x="184.5" y="339.5" class="st2" width="69" height="239"/>
<rect x="822.5" y="339.5" class="st0" width="69" height="239"/>
<rect x="822.5" y="339.5" class="st2" width="69" height="239"/>
<ellipse class="st3" cx="471" cy="189.5" rx="80" ry="105.5"/>
<rect x="417" y="144" class="st3" width="89" height="124"/>
<rect x="417" y="144" class="st4" width="89" height="124"/>
<path class="st5" d="M423.5,216.7c-5.7,6.9-14.4,10.4-23.3,9.3c-0.4,6.2,3.8,11.7,7.8,16.5l31.2,37.5c0.4,0.9,1.4,1.3,2.3,0.9
	c0.3-0.1,0.6-0.4,0.8-0.7L490,235c-4.8,2-10.4-1.2-13-5.6s-2.9-9.8-3.1-15c-0.3-7.7-0.7-15.5-1-23.2c-0.1-1.7-0.3-3.6-1.5-4.8
	c-1-0.7-2.2-1.2-3.4-1.3c-7.5-1.3-31-8-35.4-0.1c-2,3.6-1.1,10.6-2,14.7C429.3,205.8,427.4,211.9,423.5,216.7z"/>
<path class="st4" d="M423.5,216.7c-5.7,6.9-14.4,10.4-23.3,9.3c-0.4,6.2,3.8,11.7,7.8,16.5l31.2,37.5c0.4,0.9,1.4,1.3,2.3,0.9
	c0.3-0.1,0.6-0.4,0.8-0.7L490,235c-4.8,2-10.4-1.2-13-5.6s-2.9-9.8-3.1-15c-0.3-7.7-0.7-15.5-1-23.2c-0.1-1.7-0.3-3.6-1.5-4.8
	c-1-0.7-2.2-1.2-3.4-1.3c-7.5-1.3-31-8-35.4-0.1c-2,3.6-1.1,10.6-2,14.7C429.3,205.8,427.4,211.9,423.5,216.7z"/>
<circle class="st5" cx="458" cy="162" r="47"/>
<path class="st6" d="M441,256.6l-7.5-23.8c-3-9.5-7.3-20.3-16.8-23.4c-6-1.9-12.5-0.2-18.7-0.7c-12.2-1-24-10.7-35.4-6.3
	c-14,5.4-13.9,26.9-26.3,35.4c0,20.1,6.5,38.8,10,58.5s4.5,41.1-4.6,59c-3.9,7.6-9.4,14.2-13.6,21.6c-6.8,12.3-9.6,26.4-7.9,40.3
	c53.1,0.7,106.2,0.8,159.3,0.5c-0.5-6.9-3.6-13.7-4.1-20.5c-0.3-2.1-0.1-4.2,0.5-6.2c1.2-3,4.2-4.8,6.7-6.7c3.4-2.6,6.3-5.9,8.5-9.6
	c3.5-5.9,5.2-12.7,6.9-19.4l19.9-81c2.4-9.6,4.7-20.2,0.5-29.2c-4.5-9.9-15.4-15.1-25.4-19.4c-6-2.6-12.9-5.3-19-2.9
	c-5,2-8.1,6.8-11.3,11.1C456.6,242.5,449.3,250.2,441,256.6z"/>
<path class="st4" d="M335.8,245c-1.6,5.8-0.7,12.1-1.8,18c-1.9,9.9-9.2,17.8-14,26.6c-7.5,13.7-9.4,29.8-5.3,44.9
	c1.2,4.4,3.4,9.1,7.7,10.8c3.1,1.2,6.5,0.4,9.8,0.7c4.3,0.4,8.8,2.5,12.8,0.8c4.9-2.1,5.9-8.5,6.5-13.8c1.2-12.4,3.9-24.5,7.9-36.3
	c4-11.8,9.5-23.4,9.4-35.9c-0.1-8.8-11.3-0.7-18.6-5.9C341.8,249.2,338.5,234.9,335.8,245z"/>
<path class="st6" d="M333.8,244c-1.6,5.8-0.7,12.1-1.8,18c-1.9,9.9-9.2,17.8-14,26.6c-7.5,13.7-9.4,29.8-5.3,44.9
	c1.2,4.4,3.4,9.1,7.7,10.8c3.1,1.2,6.5,0.4,9.8,0.7c4.3,0.4,8.8,2.5,12.8,0.8c4.9-2.1,5.9-8.5,6.5-13.8c1.2-12.4,3.9-24.5,7.9-36.3
	c4-11.8,9.5-23.4,9.4-35.9c-0.1-8.8-3.9-18.4-11.2-23.6C347.1,230.4,336.5,233.9,333.8,244z"/>
<path class="st7" d="M402.2,189c6-3.4,11.9-7,18.1-10.1c9.7-4.8,20.5-8.6,28.1-16c1.3-1.2,3.3-1.2,4.5,0.1c0.3,0.4,0.6,0.8,0.7,1.3
	c3.3,10.7,7.1,21.1,11.6,31.3c3.8,8.8,8.1,17.4,11,26.6c2,6.4,3.3,13,5.7,19.1c3.3,8,8.4,15.1,13.6,22.1c1.9,2.6,3.8,5.2,6.5,7
	c3.7,2.5,9.3,4.1,9.7,8.6c-4.8,3.5-11.4,2.3-17.3,2.3s-12,1.2-17.9,2.6c-6.9,1.6-13.6,3.8-20,6.7c-6.3,3-12,6.8-17.8,10.7L385.5,337
	c-3.9-4.5-3.8-11-4.6-16.9c-0.7-4.3-1.7-8.5-3.1-12.6l-5.3-17.9c-2.5-8.5-5-17-7.8-25.3c-2.3-7-4.9-14.1-9.5-19.9
	c-5.5-7-13.5-11.5-20.4-17.2c-2.4-2-4.9-4.3-5.8-7.3c-0.6-2-0.3-4.2,0.8-5.9c1.5-2.1,3.5-1.8,5.9-2.2c5.7-0.9,11.3-2,16.8-3.4
	c11-2.7,21.8-6.4,32.3-10.9C390.8,195,396.5,192.2,402.2,189z"/>
<path class="st4" d="M404.4,196.4c5.3-2.9,10.4-6.1,15.8-8.8c8.4-4.2,17.9-7.5,24.5-13.9c1.1-1.1,2.8-1,3.9,0.1
	c0.3,0.3,0.5,0.7,0.7,1.1c2.9,9.3,6.2,18.4,10.1,27.3c3.3,7.7,7.1,15.2,9.6,23.2c1.7,5.5,2.8,11.3,5,16.7c2.8,7,7.4,13.2,11.8,19.3
	c1.5,2.3,3.4,4.4,5.7,6.1c3.3,2.2,8.1,3.6,8.4,7.5c-4.2,3-9.9,2-15.1,2c-5.3,0.1-10.5,0.9-15.6,2.3c-6,1.4-11.8,3.3-17.4,5.8
	c-5.4,2.7-10.6,5.9-15.5,9.4l-46.4,31.1c-3.4-3.9-3.3-9.6-4-14.8c-0.6-3.7-1.5-7.4-2.7-11l-4.6-15.6c-2.2-7.4-4.4-14.8-6.8-22.1
	c-2-6.1-4.3-12.3-8.3-17.3c-4.8-6.1-11.7-10.1-17.8-15c-2.1-1.7-4.2-3.7-5-6.4c-0.5-1.7-0.3-3.6,0.7-5.2c1.3-1.9,3.1-1.6,5.1-1.9
	c4.9-0.8,9.8-1.8,14.7-3c9.6-2.4,19.1-5.6,28.1-9.5C394.4,201.6,399.5,199.1,404.4,196.4z"/>
<circle class="st7" cx="385" cy="233.1" r="4"/>
<circle class="st7" cx="427.6" cy="213.4" r="4"/>
<circle class="st7" cx="405.1" cy="276.7" r="4"/>
<circle class="st7" cx="447.8" cy="257" r="4"/>
<path class="st5" d="M343.3,301.8c4-1.1,8.2-2.4,11.1-5.4c2.3-2.3,3.5-5.4,5.1-8.2c3.2-5.6,8.2-10.6,14.6-11.9s13.8,2.4,15.2,8.8
	c0.9,4.1-0.8,8.3-2.5,12.2c-2.6,5.8-5.5,11.8-10.7,15.3c-4.6,3-10.5,3.7-15,6.9c-4,2.8-6.5,7.2-10,10.7c-4.5,4.5-10.6,7.2-16.9,7.5
	c-1,0.1-1.9,0-2.9-0.4c-0.9-0.5-1.6-1.3-2.2-2.1c-2.9-4-5.9-8.1-7.5-12.9C316.2,305.9,331.5,305.2,343.3,301.8z"/>
<path class="st5" d="M449.8,304c-1.4-8.1-1.5-16.9-6.5-23.3c-4.2-5.4-11.1-8.1-17.9-8.6c-2-0.1-4.4,0.1-5.5,1.7
	c-0.7,1.2-0.9,2.5-0.8,3.8c0.4,10.2,4.2,20.1,10.9,27.9c2.5,2.9,5.4,5.6,7.1,9c1.5,3,2.1,6.3,3.5,9.3c1.8,3.9,5,7,7.4,10.6
	c3.4,5.2,5.2,11.2,5.1,17.4c2.6-4.3,2.3-9.7,2.6-14.8c0.3-7.1,5.3-11,2.1-16.8S451,311.1,449.8,304z"/>
<path class="st4" d="M486.7,296c-2.5,6.6-3.8,13.7-6.8,20.1c-0.8,2-2.1,3.7-3.9,5c-3.2,2-7.4,0.8-10.6-1.2s-6-4.7-9.5-6
	c-1.6,15.2-14.2,28.6-29.3,31c9,8.3,18.5,17.5,20.5,29.5c0.4,2.2,0.5,4.6,1.7,6.5c1.9,3,5.9,4,9.5,4c9.2-0.1,17.5-4.9,25.2-10
	c2.6-1.7,5.2-3.5,6.9-6.1s2.5-5.8,3.1-8.9c4.4-21,8.8-42,13.3-63c1.2-5.7,1-16.9-7.9-15.8C493,281.8,488.6,291.2,486.7,296z"/>
<path class="st6" d="M488.7,296c-2.5,6.6-3.8,13.7-6.8,20.1c-0.8,2-2.1,3.7-3.9,5c-3.2,2-7.4,0.8-10.6-1.2s-6-4.7-9.5-6
	c-1.6,15.2-14.2,28.6-29.3,31c9,8.3,18.5,17.5,20.5,29.5c0.4,2.2,0.5,4.6,1.7,6.5c1.9,3,5.9,4,9.5,4c9.2-0.1,17.5-4.9,25.2-10
	c2.6-1.7,5.2-3.5,6.9-6.1s2.5-5.8,3.1-8.9c4.4-21,8.8-42,13.3-63c1.2-5.7,1-16.9-7.9-15.8C495,281.8,490.6,291.2,488.7,296z"/>
<path class="st6" d="M342.9,335c-0.4,1.8-2.2,2.9-3.8,3.8c-3.2,1.7-6.6,3.5-10.2,3s-6.6-3.1-8.9-5.9c-1.2-1.3-2.2-2.8-3-4.4
	c-3.6-7.1-4-37.5,10.9-27.6c6.2,4.1,2.7,11.1,3.5,17.1c0.3,3.6,1.8,7,4.1,9.7C335.9,331.3,342.6,336.2,342.9,335z"/>
<ellipse class="st3" cx="470.5" cy="130" rx="44.5" ry="21"/>
<path class="st4" d="M472.5,144c-24.1,0-43.7-9-44.5-20.3c-1.3,1.9-2,4-2,6.3c0,11.6,19.9,21,44.5,21s44.5-9.4,44.5-21
	c0-0.2,0-0.5,0-0.7C509.3,137.8,492.4,144,472.5,144z"/>
<ellipse class="st3" cx="666" cy="193" rx="110" ry="100"/>
<path class="st4" d="M666,267c-55.7,0-101.8-37.7-109-86.5c-0.7,4.5-1,9-1,13.5c0,55.2,49.3,100,110,100s110-44.8,110-100
	c0-4.5-0.3-9-1-13.5C767.8,229.3,721.7,267,666,267z"/>
<ellipse class="st3" cx="664" cy="196.5" rx="53" ry="71.5"/>
<ellipse class="st4" cx="664" cy="196.5" rx="53" ry="71.5"/>
<path class="st8" d="M639.6,232.7c-2,4.9-6,10.2-12,10.6c8,6.6,16.1,13.2,25.7,18s20.9,7.6,31.8,5.9c7.7-1.2,14.7-4.6,21.2-8.3
	c11.1-6.3,22-14.5,24.8-25.7c-8.3,0.4-16.7,0.3-25-0.5c-4.3-0.4-8.7-0.9-12.5-2.8c-4.6-2.4-8.1-6.7-9.6-11.7
	c-1.5-4.7-1.5-9.7-1.2-14.6c0.2-2.9,0.3-6-1.9-8.2s-5.8-2.5-9.1-2.5c-6.6-0.1-13.2,0.3-19.8,1.2c-3.4,0.4-6.8,1-10.2,1.9
	c-4.3,1.3-3.9,0.8-2.9,4.4C642.2,211.5,644.2,221.5,639.6,232.7z"/>
<path class="st4" d="M639.6,232.7c-2,4.9-6,10.2-12,10.6c8,6.6,16.1,13.2,25.7,18s20.9,7.6,31.8,5.9c7.7-1.2,14.7-4.6,21.2-8.3
	c11.1-6.3,22-14.5,24.8-25.7c-8.3,0.4-16.7,0.3-25-0.5c-4.3-0.4-8.7-0.9-12.5-2.8c-4.6-2.4-8.1-6.7-9.6-11.7
	c-1.5-4.7-1.5-9.7-1.2-14.6c0.2-2.9,0.3-6-1.9-8.2s-5.8-2.5-9.1-2.5c-6.6-0.1-13.2,0.3-19.8,1.2c-3.4,0.4-6.8,1-10.2,1.9
	c-4.3,1.3-3.9,0.8-2.9,4.4C642.2,211.5,644.2,221.5,639.6,232.7z"/>
<circle class="st8" cx="662.5" cy="175.5" r="47"/>
<path class="st9" d="M646.3,236.9c-3.1-3.7-6.2-7.4-10.3-9.9c-6.7-4.1-15-4.4-22.8-4.5c-8.5-0.1-17.8-0.1-24.5,5.1
	c-3,2.4-5.3,5.6-7.5,8.7l-28.5,41c-1.1,1.6-2.3,3.4-2,5.3c0.3,1.4,1,2.7,2,3.7l31.4,39.2c1.8,2.2,3.6,4.6,4.2,7.4s-0.1,5.7-1.1,8.5
	c-3.8,10.8-11,21-10.3,32.4c0.5,7.4,4.3,14.2,9.1,20c10.9,13.1,26.6,21.7,43,26.3s33.6,5.7,50.7,5.8c32.2,0.2,66-3.3,92.6-21.5
	l-20.9-19.7c-4.1-3.9-8.5-8.1-9.9-13.6c-1-3.7-0.5-7.6-0.1-11.4c0.8-6.9,1.7-13.9,3.9-20.5c6.2-18.4,22.2-31.5,32.9-47.7
	c1.3-2,2.6-4.3,2.5-6.7c-0.1-2-1.3-3.9-2.4-5.6c-4.9-7.6-9.9-15.1-13.5-23.4c-2.6-6.2-4.4-12.7-7.7-18.6s-8.5-11.1-15-12.3
	c-8.4-1.6-16.6,3.7-25.2,4c-6.3,0.3-12.8-2.1-18.6,0.1c-6.9,2.6-10,10.5-13.9,16.8c-2.9,4.7-11.4,17.7-18.1,14.5
	c-3.7-1.7-7-8-9.6-11.1L646.3,236.9z"/>
<path class="st10" d="M683.7,268.7c-1.6-0.9-3.4-1.2-5.2-0.9c-1.8,0.4-3.2,1.9-3.3,3.7l-2.9-0.2c-0.3,0-0.7,0-1,0
	c-0.9,0.2-1.4,1-1.2,1.9c0.2,0.9,1,1.4,1.9,1.2l0,0c-1.4,0.6-2.7,1.5-3.7,2.6c-1.6,2.4-0.9,5.5,1.4,7.1c2.4,1.4,5.6,0.8,7.3-1.5
	c-0.3,1.2,0.2,2.5,1.4,3.1c5.4,2.9,8.2-1,8.9-5.7C688.1,275.1,689.2,271.4,683.7,268.7z"/>
<path class="st11" d="M683.7,268.7c-1.6-0.9-3.4-1.2-5.2-0.9c-1.8,0.4-3.2,1.9-3.3,3.7l-2.9-0.2c-0.3,0-0.7,0-1,0
	c-0.9,0.2-1.4,1-1.2,1.9c0.2,0.9,1,1.4,1.9,1.2l0,0c-1.4,0.6-2.7,1.5-3.7,2.6c-1.6,2.4-0.9,5.5,1.4,7.1c2.4,1.4,5.6,0.8,7.3-1.5
	c-0.3,1.2,0.2,2.5,1.4,3.1c5.4,2.9,8.2-1,8.9-5.7C688.1,275.1,689.2,271.4,683.7,268.7z"/>
<path class="st10" d="M698.5,265.3c-1.6-0.9-3.4-1.2-5.2-0.9c-1.8,0.3-3.2,1.9-3.3,3.7l-2.9-0.2c-0.3,0-0.7,0-1,0
	c-0.8,0.3-1.3,1.1-1.1,1.9c0.2,0.8,1,1.3,1.9,1.2c-1.4,0.6-2.7,1.5-3.7,2.6c-1.6,2.4-0.9,5.5,1.4,7.1c2.4,1.4,5.6,0.8,7.3-1.5
	c-0.3,1.2,0.2,2.5,1.4,3.1c5.4,2.9,8.2-1,8.9-5.6C702.9,271.7,704,268,698.5,265.3z"/>
<path class="st10" d="M710.5,267c-1.6-0.9-3.4-1.2-5.2-0.9c-1.8,0.3-3.2,1.9-3.3,3.7l-2.9-0.2c-0.3,0-0.7,0-1,0
	c-0.8,0.3-1.3,1.1-1.1,1.9c0.2,0.8,1,1.3,1.9,1.2c-1.4,0.6-2.7,1.5-3.7,2.6c-1.6,2.4-0.9,5.5,1.4,7.1c2.4,1.4,5.6,0.8,7.3-1.5
	c-0.3,1.2,0.2,2.5,1.4,3.1c5.4,2.9,8.2-1,8.9-5.6C714.9,273.5,716,269.7,710.5,267z"/>
<path class="st11" d="M710.5,267c-1.6-0.9-3.4-1.2-5.2-0.9c-1.8,0.3-3.2,1.9-3.3,3.7l-2.9-0.2c-0.3,0-0.7,0-1,0
	c-0.8,0.3-1.3,1.1-1.1,1.9c0.2,0.8,1,1.3,1.9,1.2c-1.4,0.6-2.7,1.5-3.7,2.6c-1.6,2.4-0.9,5.5,1.4,7.1c2.4,1.4,5.6,0.8,7.3-1.5
	c-0.3,1.2,0.2,2.5,1.4,3.1c5.4,2.9,8.2-1,8.9-5.6C714.9,273.5,716,269.7,710.5,267z"/>
<path class="st7" d="M740,274v107.4c0,1.4-1.2,2.6-2.6,2.6h-83.8c-1.4,0-2.6-1.2-2.6-2.6V274c0-1.4,1.2-2.6,2.6-2.6
	c0.4,0,0.7,0.1,1,0.2c2.1,0.9,4.3,1.8,6.4,2.5c3,1.1,6,2.1,9,2.9c3,0.8,6,1.5,9,2s6,0.9,9,1.2s6,0.3,9,0.3s6-0.2,9-0.6s6-0.8,9-1.5
	s6-1.4,9-2.3c2.3-0.7,4.7-1.5,7-2.4c1.8-0.7,3.6-1.4,5.4-2.2c1.3-0.6,2.8,0,3.4,1.3C739.9,273.3,740,273.6,740,274z"/>
<path class="st12" d="M670,277v107h-9V274.2C664,275.3,667,276.2,670,277z"/>
<path class="st12" d="M688,280.2V384h-9V279C682,279.6,685,280,688,280.2z"/>
<path class="st12" d="M706,279.9V384h-9V280.5C700,280.4,703,280.3,706,279.9z"/>
<path class="st12" d="M724,276.2V384h-9V278.5C718,277.9,721,277.1,724,276.2z"/>
<path class="st4" d="M740,274v107.4c0,1.4-1.2,2.6-2.6,2.6H731V273.8c1.8-0.7,3.6-1.4,5.4-2.2c1.3-0.6,2.8,0,3.4,1.3
	C739.9,273.3,740,273.6,740,274z"/>
<path class="st10" d="M674.4,263.5c-1.6-0.9-3.4-1.2-5.2-0.9c-1.8,0.3-3.2,1.9-3.3,3.7l-2.9-0.2c-0.3,0-0.7,0-1,0
	c-0.8,0.3-1.3,1.1-1.1,1.9c0.2,0.8,1,1.3,1.9,1.2c-1.4,0.6-2.7,1.5-3.7,2.6c-1.6,2.4-0.9,5.5,1.4,7.1c2.4,1.4,5.6,0.8,7.3-1.5
	c-0.3,1.2,0.2,2.5,1.4,3.1c5.4,2.9,8.2-1,8.9-5.6C678.8,270,679.9,266.3,674.4,263.5z"/>
<path class="st10" d="M689.4,246.5c-1.6-0.9-3.4-1.2-5.2-0.9c-1.8,0.3-3.2,1.9-3.3,3.7l-2.9-0.2c-0.3,0-0.7,0-1,0
	c-0.8,0.3-1.3,1.1-1.1,1.9c0.2,0.8,1,1.3,1.9,1.2c-1.4,0.6-2.7,1.5-3.7,2.6c-1.6,2.4-0.9,5.5,1.4,7.1c2.4,1.4,5.6,0.8,7.3-1.5
	c-0.3,1.2,0.2,2.5,1.4,3.1c5.4,2.9,8.2-1,8.9-5.6C693.8,253,694.9,249.3,689.4,246.5z"/>
<path class="st10" d="M699.6,269.6c1.2-1.4,1.9-3.1,1.9-4.9c0-1.9-1.2-3.5-3-4l0.7-2.8c0.1-0.3,0.2-0.7,0.2-1c0-0.9-0.8-1.6-1.7-1.5
	c-0.9,0-1.6,0.8-1.5,1.6c-0.3-1.5-0.9-2.9-1.8-4.1c-2-2-5.3-2-7.3,0c-1.9,2.1-1.9,5.3,0,7.4c-1.1-0.6-2.5-0.2-3.3,0.8
	c-3.9,4.7-0.6,8.2,3.8,9.9C692.4,272.7,695.9,274.5,699.6,269.6z"/>
<path class="st10" d="M712.6,269.6c1.2-1.4,1.9-3.1,1.9-4.9c0-1.9-1.2-3.5-3-4l0.7-2.8c0.1-0.3,0.2-0.7,0.2-1c0-0.9-0.8-1.6-1.7-1.5
	c-0.9,0-1.6,0.8-1.5,1.6c-0.3-1.5-0.9-2.9-1.8-4.1c-2-2-5.3-2-7.3,0c-1.9,2.1-1.9,5.3,0,7.4c-1.1-0.6-2.5-0.2-3.3,0.8
	c-3.9,4.7-0.6,8.2,3.8,9.9C705.4,272.7,708.9,274.5,712.6,269.6z"/>
<path class="st10" d="M720.7,278.2c0.9-1.6,1.3-3.4,1-5.2c-0.3-1.8-1.8-3.2-3.7-3.4l0.2-2.9c0.1-0.3,0.1-0.7,0-1
	c-0.2-0.9-1-1.4-1.9-1.2c-0.9,0.2-1.4,1-1.2,1.9l0,0c-0.5-1.4-1.4-2.7-2.6-3.7c-2.3-1.6-5.5-1-7.2,1.3c-1.4,2.4-0.8,5.6,1.4,7.3
	c-1.2-0.4-2.5,0.2-3.1,1.4c-3,5.4,1,8.2,5.6,9C714.2,282.5,718,283.6,720.7,278.2z"/>
<path class="st10" d="M680.7,262.2c0.9-1.6,1.3-3.4,1-5.2c-0.3-1.8-1.8-3.2-3.7-3.4l0.2-2.9c0.1-0.3,0.1-0.7,0-1
	c-0.2-0.9-1-1.4-1.9-1.2c-0.9,0.2-1.4,1-1.2,1.9l0,0c-0.5-1.4-1.4-2.7-2.6-3.7c-2.3-1.6-5.5-1-7.2,1.3c-1.4,2.4-0.8,5.6,1.4,7.3
	c-1.2-0.4-2.5,0.2-3.1,1.4c-3,5.4,1,8.2,5.6,9C674.2,266.5,678,267.6,680.7,262.2z"/>
<path class="st10" d="M684.7,256.7c-1.6-0.9-3.4-1.2-5.2-0.9c-1.8,0.4-3.2,1.9-3.3,3.7l-2.9-0.2c-0.3,0-0.7,0-1,0
	c-0.9,0.2-1.4,1-1.2,1.9c0.2,0.9,1,1.4,1.9,1.2c-1.4,0.6-2.7,1.5-3.7,2.6c-1.6,2.4-0.9,5.5,1.4,7.1c2.4,1.4,5.6,0.8,7.3-1.5
	c-0.3,1.2,0.2,2.5,1.4,3.1c5.4,2.9,8.2-1,8.9-5.7C689.1,263.1,690.2,259.4,684.7,256.7z"/>
<path class="st11" d="M684.7,256.7c-1.6-0.9-3.4-1.2-5.2-0.9c-1.8,0.4-3.2,1.9-3.3,3.7l-2.9-0.2c-0.3,0-0.7,0-1,0
	c-0.9,0.2-1.4,1-1.2,1.9c0.2,0.9,1,1.4,1.9,1.2c-1.4,0.6-2.7,1.5-3.7,2.6c-1.6,2.4-0.9,5.5,1.4,7.1c2.4,1.4,5.6,0.8,7.3-1.5
	c-0.3,1.2,0.2,2.5,1.4,3.1c5.4,2.9,8.2-1,8.9-5.7C689.1,263.1,690.2,259.4,684.7,256.7z"/>
<path class="st10" d="M727.8,260.1c-1.6-0.9-3.4-1.2-5.2-0.9c-1.8,0.3-3.2,1.9-3.3,3.7l-2.9-0.2c-0.3,0-0.7,0-1,0
	c-0.8,0.3-1.3,1.1-1.1,1.9c0.2,0.8,1,1.3,1.9,1.2c-1.4,0.6-2.7,1.5-3.7,2.6c-1.6,2.4-0.9,5.5,1.4,7.1c2.4,1.4,5.6,0.8,7.3-1.5
	c-0.3,1.2,0.2,2.5,1.4,3.1c5.4,2.9,8.2-1,8.9-5.7C732.1,266.6,733.2,262.8,727.8,260.1z"/>
<path class="st11" d="M727.8,260.1c-1.6-0.9-3.4-1.2-5.2-0.9c-1.8,0.3-3.2,1.9-3.3,3.7l-2.9-0.2c-0.3,0-0.7,0-1,0
	c-0.8,0.3-1.3,1.1-1.1,1.9c0.2,0.8,1,1.3,1.9,1.2c-1.4,0.6-2.7,1.5-3.7,2.6c-1.6,2.4-0.9,5.5,1.4,7.1c2.4,1.4,5.6,0.8,7.3-1.5
	c-0.3,1.2,0.2,2.5,1.4,3.1c5.4,2.9,8.2-1,8.9-5.7C732.1,266.6,733.2,262.8,727.8,260.1z"/>
<path class="st10" d="M701.8,243.1c-1.6-0.9-3.4-1.2-5.2-0.9c-1.8,0.3-3.2,1.9-3.3,3.7l-2.9-0.2c-0.3,0-0.7,0-1,0
	c-0.8,0.3-1.3,1.1-1.1,1.9c0.2,0.8,1,1.3,1.9,1.2c-1.4,0.6-2.7,1.5-3.7,2.6c-1.6,2.4-0.9,5.5,1.4,7.1c2.4,1.4,5.6,0.8,7.3-1.5
	c-0.3,1.2,0.2,2.5,1.4,3.1c5.4,2.9,8.2-1,8.9-5.7C706.1,249.6,707.2,245.8,701.8,243.1z"/>
<path class="st11" d="M701.8,243.1c-1.6-0.9-3.4-1.2-5.2-0.9c-1.8,0.3-3.2,1.9-3.3,3.7l-2.9-0.2c-0.3,0-0.7,0-1,0
	c-0.8,0.3-1.3,1.1-1.1,1.9c0.2,0.8,1,1.3,1.9,1.2c-1.4,0.6-2.7,1.5-3.7,2.6c-1.6,2.4-0.9,5.5,1.4,7.1c2.4,1.4,5.6,0.8,7.3-1.5
	c-0.3,1.2,0.2,2.5,1.4,3.1c5.4,2.9,8.2-1,8.9-5.7C706.1,249.6,707.2,245.8,701.8,243.1z"/>
<path class="st10" d="M681.8,237.1c-1.6-0.9-3.4-1.2-5.2-0.9c-1.8,0.3-3.2,1.9-3.3,3.7l-2.9-0.2c-0.3,0-0.7,0-1,0
	c-0.8,0.3-1.3,1.1-1.1,1.9c0.2,0.8,1,1.3,1.9,1.2c-1.4,0.6-2.7,1.5-3.7,2.6c-1.6,2.4-0.9,5.5,1.4,7.1c2.4,1.4,5.6,0.8,7.3-1.5
	c-0.3,1.2,0.2,2.5,1.4,3.1c5.4,2.9,8.2-1,8.9-5.7C686.1,243.6,687.2,239.8,681.8,237.1z"/>
<path class="st11" d="M681.8,237.1c-1.6-0.9-3.4-1.2-5.2-0.9c-1.8,0.3-3.2,1.9-3.3,3.7l-2.9-0.2c-0.3,0-0.7,0-1,0
	c-0.8,0.3-1.3,1.1-1.1,1.9c0.2,0.8,1,1.3,1.9,1.2c-1.4,0.6-2.7,1.5-3.7,2.6c-1.6,2.4-0.9,5.5,1.4,7.1c2.4,1.4,5.6,0.8,7.3-1.5
	c-0.3,1.2,0.2,2.5,1.4,3.1c5.4,2.9,8.2-1,8.9-5.7C686.1,243.6,687.2,239.8,681.8,237.1z"/>
<path class="st10" d="M703.8,233.1c-1.6-0.9-3.4-1.2-5.2-0.9c-1.8,0.3-3.2,1.9-3.3,3.7l-2.9-0.2c-0.3,0-0.7,0-1,0
	c-0.8,0.3-1.3,1.1-1.1,1.9c0.2,0.8,1,1.3,1.9,1.2c-1.4,0.6-2.7,1.5-3.7,2.6c-1.6,2.4-0.9,5.5,1.4,7.1c2.4,1.4,5.6,0.8,7.3-1.5
	c-0.3,1.2,0.2,2.5,1.4,3.1c5.4,2.9,8.2-1,8.9-5.7C708.1,239.6,709.2,235.8,703.8,233.1z"/>
<path class="st11" d="M703.8,233.1c-1.6-0.9-3.4-1.2-5.2-0.9c-1.8,0.3-3.2,1.9-3.3,3.7l-2.9-0.2c-0.3,0-0.7,0-1,0
	c-0.8,0.3-1.3,1.1-1.1,1.9c0.2,0.8,1,1.3,1.9,1.2c-1.4,0.6-2.7,1.5-3.7,2.6c-1.6,2.4-0.9,5.5,1.4,7.1c2.4,1.4,5.6,0.8,7.3-1.5
	c-0.3,1.2,0.2,2.5,1.4,3.1c5.4,2.9,8.2-1,8.9-5.7C708.1,239.6,709.2,235.8,703.8,233.1z"/>
<path class="st10" d="M711.8,239.1c-1.6-0.9-3.4-1.2-5.2-0.9c-1.8,0.3-3.2,1.9-3.3,3.7l-2.9-0.2c-0.3,0-0.7,0-1,0
	c-0.8,0.3-1.3,1.1-1.1,1.9c0.2,0.8,1,1.3,1.9,1.2c-1.4,0.6-2.7,1.5-3.7,2.6c-1.6,2.4-0.9,5.5,1.4,7.1c2.4,1.4,5.6,0.8,7.3-1.5
	c-0.3,1.2,0.2,2.5,1.4,3.1c5.4,2.9,8.2-1,8.9-5.7C716.1,245.6,717.2,241.8,711.8,239.1z"/>
<path class="st11" d="M711.8,239.1c-1.6-0.9-3.4-1.2-5.2-0.9c-1.8,0.3-3.2,1.9-3.3,3.7l-2.9-0.2c-0.3,0-0.7,0-1,0
	c-0.8,0.3-1.3,1.1-1.1,1.9c0.2,0.8,1,1.3,1.9,1.2c-1.4,0.6-2.7,1.5-3.7,2.6c-1.6,2.4-0.9,5.5,1.4,7.1c2.4,1.4,5.6,0.8,7.3-1.5
	c-0.3,1.2,0.2,2.5,1.4,3.1c5.4,2.9,8.2-1,8.9-5.7C716.1,245.6,717.2,241.8,711.8,239.1z"/>
<path class="st10" d="M662.8,260.1c-1.6-0.9-3.4-1.2-5.2-0.9c-1.8,0.3-3.2,1.9-3.3,3.7l-2.9-0.2c-0.3,0-0.7,0-1,0
	c-0.8,0.3-1.3,1.1-1.1,1.9c0.2,0.8,1,1.3,1.9,1.2c-1.4,0.6-2.7,1.5-3.7,2.6c-1.6,2.4-0.9,5.5,1.4,7.1c2.4,1.4,5.6,0.8,7.3-1.5
	c-0.3,1.2,0.2,2.5,1.4,3.1c5.4,2.9,8.2-1,8.9-5.7C667.1,266.6,668.2,262.8,662.8,260.1z"/>
<path class="st11" d="M662.8,260.1c-1.6-0.9-3.4-1.2-5.2-0.9c-1.8,0.3-3.2,1.9-3.3,3.7l-2.9-0.2c-0.3,0-0.7,0-1,0
	c-0.8,0.3-1.3,1.1-1.1,1.9c0.2,0.8,1,1.3,1.9,1.2c-1.4,0.6-2.7,1.5-3.7,2.6c-1.6,2.4-0.9,5.5,1.4,7.1c2.4,1.4,5.6,0.8,7.3-1.5
	c-0.3,1.2,0.2,2.5,1.4,3.1c5.4,2.9,8.2-1,8.9-5.7C667.1,266.6,668.2,262.8,662.8,260.1z"/>
<path class="st10" d="M720.8,246.1c-1.6-0.9-3.4-1.2-5.2-0.9c-1.8,0.3-3.2,1.9-3.3,3.7l-2.9-0.2c-0.3,0-0.7,0-1,0
	c-0.8,0.3-1.3,1.1-1.1,1.9c0.2,0.8,1,1.3,1.9,1.2c-1.4,0.6-2.7,1.5-3.7,2.6c-1.6,2.4-0.9,5.5,1.4,7.1c2.4,1.4,5.6,0.8,7.3-1.5
	c-0.3,1.2,0.2,2.5,1.4,3.1c5.4,2.9,8.2-1,8.9-5.7C725.1,252.6,726.2,248.8,720.8,246.1z"/>
<path class="st11" d="M720.8,246.1c-1.6-0.9-3.4-1.2-5.2-0.9c-1.8,0.3-3.2,1.9-3.3,3.7l-2.9-0.2c-0.3,0-0.7,0-1,0
	c-0.8,0.3-1.3,1.1-1.1,1.9c0.2,0.8,1,1.3,1.9,1.2c-1.4,0.6-2.7,1.5-3.7,2.6c-1.6,2.4-0.9,5.5,1.4,7.1c2.4,1.4,5.6,0.8,7.3-1.5
	c-0.3,1.2,0.2,2.5,1.4,3.1c5.4,2.9,8.2-1,8.9-5.7C725.1,252.6,726.2,248.8,720.8,246.1z"/>
<path class="st10" d="M739.8,256.1c-1.6-0.9-3.4-1.2-5.2-0.9c-1.8,0.3-3.2,1.9-3.3,3.7l-2.9-0.2c-0.3,0-0.7,0-1,0
	c-0.8,0.3-1.3,1.1-1.1,1.9c0.2,0.8,1,1.3,1.9,1.2c-1.4,0.6-2.7,1.5-3.7,2.6c-1.6,2.4-0.9,5.5,1.4,7.1c2.4,1.4,5.6,0.8,7.3-1.5
	c-0.3,1.2,0.2,2.5,1.4,3.1c5.4,2.9,8.2-1,8.9-5.7C744.1,262.6,745.2,258.8,739.8,256.1z"/>
<path class="st11" d="M739.8,256.1c-1.6-0.9-3.4-1.2-5.2-0.9c-1.8,0.3-3.2,1.9-3.3,3.7l-2.9-0.2c-0.3,0-0.7,0-1,0
	c-0.8,0.3-1.3,1.1-1.1,1.9c0.2,0.8,1,1.3,1.9,1.2c-1.4,0.6-2.7,1.5-3.7,2.6c-1.6,2.4-0.9,5.5,1.4,7.1c2.4,1.4,5.6,0.8,7.3-1.5
	c-0.3,1.2,0.2,2.5,1.4,3.1c5.4,2.9,8.2-1,8.9-5.7C744.1,262.6,745.2,258.8,739.8,256.1z"/>
<path class="st10" d="M723.8,234.1c-1.6-0.9-3.4-1.2-5.2-0.9c-1.8,0.3-3.2,1.9-3.3,3.7l-2.9-0.2c-0.3,0-0.7,0-1,0
	c-0.8,0.3-1.3,1.1-1.1,1.9c0.2,0.8,1,1.3,1.9,1.2c-1.4,0.6-2.7,1.5-3.7,2.6c-1.6,2.4-0.9,5.5,1.4,7.1c2.4,1.4,5.6,0.8,7.3-1.5
	c-0.3,1.2,0.2,2.5,1.4,3.1c5.4,2.9,8.2-1,8.9-5.7C728.1,240.6,729.2,236.8,723.8,234.1z"/>
<path class="st11" d="M723.8,234.1c-1.6-0.9-3.4-1.2-5.2-0.9c-1.8,0.3-3.2,1.9-3.3,3.7l-2.9-0.2c-0.3,0-0.7,0-1,0
	c-0.8,0.3-1.3,1.1-1.1,1.9c0.2,0.8,1,1.3,1.9,1.2c-1.4,0.6-2.7,1.5-3.7,2.6c-1.6,2.4-0.9,5.5,1.4,7.1c2.4,1.4,5.6,0.8,7.3-1.5
	c-0.3,1.2,0.2,2.5,1.4,3.1c5.4,2.9,8.2-1,8.9-5.7C728.1,240.6,729.2,236.8,723.8,234.1z"/>
<path class="st10" d="M737.7,258.2c0.9-1.6,1.3-3.4,1-5.2c-0.3-1.8-1.8-3.2-3.7-3.4l0.2-2.9c0.1-0.3,0.1-0.7,0-1
	c-0.2-0.9-1-1.4-1.9-1.2c-0.9,0.2-1.4,1-1.2,1.9c-0.5-1.4-1.4-2.7-2.6-3.7c-2.3-1.6-5.5-1-7.2,1.3c-1.4,2.4-0.8,5.6,1.4,7.3
	c-1.2-0.4-2.5,0.2-3.1,1.4c-3,5.4,1,8.2,5.6,9C731.2,262.5,735,263.6,737.7,258.2z"/>
<path class="st10" d="M737.7,242.2c0.9-1.6,1.3-3.4,1-5.2c-0.3-1.8-1.8-3.2-3.7-3.4l0.2-2.9c0.1-0.3,0.1-0.7,0-1
	c-0.2-0.9-1-1.4-1.9-1.2c-0.9,0.2-1.4,1-1.2,1.9l0,0c-0.5-1.4-1.4-2.7-2.6-3.7c-2.3-1.6-5.5-1-7.2,1.3c-1.4,2.4-0.8,5.6,1.4,7.3
	c-1.2-0.4-2.5,0.2-3.1,1.4c-3,5.4,1,8.2,5.6,9C731.2,246.5,735,247.6,737.7,242.2z"/>
<path class="st10" d="M720.7,263.2c0.9-1.6,1.3-3.4,1-5.2c-0.3-1.8-1.8-3.2-3.7-3.4l0.2-2.9c0.1-0.3,0.1-0.7,0-1
	c-0.2-0.9-1-1.4-1.9-1.2c-0.9,0.2-1.4,1-1.2,1.9c-0.5-1.4-1.4-2.7-2.6-3.7c-2.3-1.6-5.5-1-7.2,1.3c-1.4,2.4-0.8,5.6,1.4,7.3
	c-1.2-0.4-2.5,0.2-3.1,1.4c-3,5.4,1,8.2,5.6,9C714.2,267.5,718,268.6,720.7,263.2z"/>
<path class="st10" d="M739.7,281.2c0.9-1.6,1.3-3.4,1-5.2c-0.3-1.8-1.8-3.2-3.7-3.4l0.2-2.9c0.1-0.3,0.1-0.7,0-1
	c-0.2-0.9-1-1.4-1.9-1.2c-0.9,0.2-1.4,1-1.2,1.9l0,0c-0.5-1.4-1.4-2.7-2.6-3.7c-2.3-1.6-5.5-1-7.2,1.3c-1.4,2.4-0.8,5.6,1.4,7.3
	c-1.2-0.4-2.5,0.2-3.1,1.4c-3,5.4,1,8.2,5.6,9C733.2,285.5,737,286.6,739.7,281.2z"/>
<path class="st10" d="M703.7,288.2c0.9-1.6,1.3-3.4,1-5.2c-0.3-1.8-1.8-3.2-3.7-3.4l0.2-2.9c0.1-0.3,0.1-0.7,0-1
	c-0.2-0.9-1-1.4-1.9-1.2c-0.9,0.2-1.4,1-1.2,1.9l0,0c-0.5-1.4-1.4-2.7-2.6-3.7c-2.3-1.6-5.5-1-7.2,1.3c-1.4,2.4-0.8,5.6,1.4,7.3
	c-1.2-0.4-2.5,0.2-3.1,1.4c-3,5.4,1,8.2,5.6,9C697.2,292.5,701,293.6,703.7,288.2z"/>
<path class="st10" d="M695.7,247.2c0.9-1.6,1.3-3.4,1-5.2c-0.3-1.8-1.8-3.2-3.7-3.4l0.2-2.9c0.1-0.3,0.1-0.7,0-1
	c-0.2-0.9-1-1.4-1.9-1.2c-0.9,0.2-1.4,1-1.2,1.9l0,0c-0.5-1.4-1.4-2.7-2.6-3.7c-2.3-1.6-5.5-1-7.2,1.3c-1.4,2.4-0.8,5.6,1.4,7.3
	c-1.2-0.4-2.5,0.2-3.1,1.4c-3,5.4,1,8.2,5.6,9C689.2,251.5,693,252.6,695.7,247.2z"/>
<path class="st10" d="M716.7,242.2c0.9-1.6,1.3-3.4,1-5.2c-0.3-1.8-1.8-3.2-3.7-3.4l0.2-2.9c0.1-0.3,0.1-0.7,0-1
	c-0.2-0.9-1-1.4-1.9-1.2c-0.9,0.2-1.4,1-1.2,1.9l0,0c-0.5-1.4-1.4-2.7-2.6-3.7c-2.3-1.6-5.5-1-7.2,1.3c-1.4,2.4-0.8,5.6,1.4,7.3
	c-1.2-0.4-2.5,0.2-3.1,1.4c-3,5.4,1,8.2,5.6,9C710.2,246.5,714,247.6,716.7,242.2z"/>
<path class="st10" d="M674.7,261.2c0.9-1.6,1.3-3.4,1-5.2c-0.3-1.8-1.8-3.2-3.7-3.4l0.2-2.9c0.1-0.3,0.1-0.7,0-1
	c-0.2-0.9-1-1.4-1.9-1.2c-0.9,0.2-1.4,1-1.2,1.9l0,0c-0.5-1.4-1.4-2.7-2.6-3.7c-2.3-1.6-5.5-1-7.2,1.3c-1.4,2.4-0.8,5.6,1.4,7.3
	c-1.2-0.4-2.5,0.2-3.1,1.4c-3,5.4,1,8.2,5.6,9C668.2,265.5,672,266.6,674.7,261.2z"/>
<path class="st8" d="M658.8,307.1c5.2-0.4,10.3-1.8,15.5-1.7c6.8,0.1,13.4,2.6,19.6,5.4c1.8,0.7,3.5,1.7,4.9,3.1
	c2.1,2.4,3,5.6,2.4,8.7c-0.6,3.1-1.8,6-3.6,8.6c-1.8,2.9-4.1,5.7-7.2,7c-1.8,0.6-3.6,0.9-5.5,1c-7.8,0.4-15.8,0-23.2-2.5
	c-3.8-1.3-7.4-3.1-11.2-4.7c-11.9-4.9-24.8-6.9-37.4-9.3c-0.6-0.1-1.3-0.3-1.8-0.7c-2.6-2.3,3.1-10.5,4.4-12.7
	c2.3-3.9,4.3-4.3,8.9-4.4C636.2,304.4,647.3,307.8,658.8,307.1z"/>
<path class="st8" d="M747.8,334.7c-3.6-1.8-6.9-4.2-10.5-6.1c-4.5-2.3-9.5-3.6-14.6-3.9c-3.3-0.1-6.9,0.3-9.3,2.6
	c-3.4,3.2-3,8.8-1.9,13.3c1.7,6.8,5.1,14.1,11.7,16.7c2.6,0.9,5.3,1.3,8,1.4c12.2,0.8,24.8,1.6,36.1-3c0.8-0.3,1.5-0.8,2-1.5
	c0.5-1,0-2.2-0.5-3.2c-1.8-3.6-4.7-11.2-8.1-13.5C757.5,335.3,751.8,336.7,747.8,334.7z"/>
<path class="st4" d="M776.4,280.3c6.7,10.6,12.1,21.9,16.3,33.6c1.2,2.9,1.8,6,2,9.1c0,3.5-1.2,6.8-2.5,10.1
	c-4,10.5-8.7,20.7-14.1,30.6c-1.6,3-3.4,6.1-6.6,7.8c-3.3,1.7-7.4,1.5-11.2,1c-9.5-1-19-2.7-28.3-5c5.9,0.2,11.2-4.2,13.9-9
	s3.3-10.3,3.8-15.6c0.4-2.9,0.3-5.8-0.4-8.6c-0.8-3-2.9-5.4-5.8-6.5c-0.3-2.6,2.2-4.8,4.8-6s5.5-1.9,7.6-3.7c3.1-2.6,3.5-7,2.5-10.8
	s-3.2-7.1-4.8-10.7c-2.2-5,9.1-10.3,9.6-15.7c0.1-1.2-0.8,1,0,0s5.5,2.5,6.5,2C776.7,279.9,772.5,274.1,776.4,280.3z"/>
<path class="st9" d="M778.6,280.3c6.7,10.6,12.1,21.9,16.3,33.6c1.2,2.9,1.9,6,2,9.1c0,3.5-1.2,6.8-2.5,10.1
	c-4.1,10.5-8.7,20.7-14.1,30.6c-1.6,3-3.4,6.1-6.6,7.8c-3.3,1.7-7.4,1.5-11.2,1c-9.6-1-19-2.7-28.4-5c5.9,0.2,11.2-4.2,13.9-9
	s3.3-10.3,3.8-15.6c0.4-2.9,0.3-5.8-0.4-8.6c-0.8-3-2.9-5.4-5.8-6.5c-0.3-2.6,2.2-4.8,4.8-6s5.5-1.9,7.6-3.7c3.1-2.6,3.5-7,2.5-10.8
	s-3.2-7.1-4.8-10.7c-2.2-5-3.1-10.5-2.7-15.9c0-1.2,0.4-2.5,1.1-3.5c0.7-0.9,1.7-1.6,2.8-2C764,272.2,774.7,274.1,778.6,280.3z"/>
<path class="st4" d="M564.8,270.4c-6.5,6-13.2,12.3-16.3,20.6c-1.7,4.5-2.3,9.4-2.8,14.2c-0.9,8.2-1.8,16.9,2,24.2
	c4.2,8,13,12.3,21.3,15.9c2.9,1.3,5.8,2.5,8.8,3.3c4,0.9,8,1.4,12.1,1.5l41.7,2.3c-5.4-5.5-8.9-14.1-8.2-21.8
	c0.7-6.9,4-13.2,7.3-19.2c1.7-3.1,3.7-6.4,6.9-7.9c-13.6-3-27.5-3.9-41.4-2.6c-0.9,0.1-2,0.1-2.6-0.6c-0.3-0.5-0.4-1-0.4-1.6
	c0-6.2,4.6-11.4,6.6-17.3c3.1-9.5-7.4-4.3-16.8-7.5S566.7,260.6,564.8,270.4z"/>
<path class="st9" d="M561.8,270.4c-6.5,6-13.2,12.3-16.3,20.6c-1.7,4.5-2.3,9.4-2.8,14.2c-0.9,8.2-1.8,16.9,2,24.2
	c4.2,8,13,12.3,21.3,15.9c2.9,1.3,5.8,2.5,8.8,3.3c4,0.9,8,1.4,12.1,1.5l41.7,2.3c-5.4-5.5-8.9-14.1-8.2-21.8
	c0.7-6.9,4-13.2,7.3-19.2c1.7-3.1,3.7-6.4,6.9-7.9c-13.6-3-27.5-3.9-41.4-2.6c-0.9,0.1-2,0.1-2.6-0.6c-0.3-0.5-0.4-1-0.4-1.6
	c0-6.2,4.6-11.4,6.6-17.3c3.1-9.5-2.3-21-11.7-24.3S563.7,260.6,561.8,270.4z"/>
<ellipse class="st3" cx="666.5" cy="142" rx="50.5" ry="21"/>
<path class="st4" d="M665.5,154c-24.2,0-44.4-7.1-49.3-16.5c-0.8,1.4-1.2,2.9-1.2,4.5c0,11.6,22.6,21,50.5,21s50.5-9.4,50.5-21
	c0-1.6-0.4-3.1-1.2-4.5C709.9,146.9,689.7,154,665.5,154z"/>
<path class="st10" d="M733.8,156.1c-1.6-0.9-3.4-1.2-5.2-0.9c-1.8,0.3-3.2,1.9-3.3,3.7l-2.9-0.2c-0.3,0-0.7,0-1,0
	c-0.8,0.3-1.3,1.1-1.1,1.9c0.2,0.8,1,1.3,1.9,1.2c-1.4,0.6-2.7,1.5-3.7,2.6c-1.6,2.4-0.9,5.5,1.4,7.1c2.4,1.4,5.6,0.8,7.3-1.5
	c-0.3,1.2,0.2,2.5,1.4,3.1c5.4,2.9,8.2-1,8.9-5.7C738.1,162.6,739.2,158.8,733.8,156.1z"/>
<path class="st11" d="M733.8,156.1c-1.6-0.9-3.4-1.2-5.2-0.9c-1.8,0.3-3.2,1.9-3.3,3.7l-2.9-0.2c-0.3,0-0.7,0-1,0
	c-0.8,0.3-1.3,1.1-1.1,1.9c0.2,0.8,1,1.3,1.9,1.2c-1.4,0.6-2.7,1.5-3.7,2.6c-1.6,2.4-0.9,5.5,1.4,7.1c2.4,1.4,5.6,0.8,7.3-1.5
	c-0.3,1.2,0.2,2.5,1.4,3.1c5.4,2.9,8.2-1,8.9-5.7C738.1,162.6,739.2,158.8,733.8,156.1z"/>
<path class="st10" d="M781.8,232.1c-1.6-0.9-3.4-1.2-5.2-0.9c-1.8,0.3-3.2,1.9-3.3,3.7l-2.9-0.2c-0.3,0-0.7,0-1,0
	c-0.8,0.3-1.3,1.1-1.1,1.9c0.2,0.8,1,1.3,1.9,1.2c-1.4,0.6-2.7,1.5-3.7,2.6c-1.6,2.4-0.9,5.5,1.4,7.1c2.4,1.4,5.6,0.8,7.3-1.5
	c-0.3,1.2,0.2,2.5,1.4,3.1c5.4,2.9,8.2-1,8.9-5.7C786.1,238.6,787.2,234.8,781.8,232.1z"/>
<path class="st11" d="M781.8,232.1c-1.6-0.9-3.4-1.2-5.2-0.9c-1.8,0.3-3.2,1.9-3.3,3.7l-2.9-0.2c-0.3,0-0.7,0-1,0
	c-0.8,0.3-1.3,1.1-1.1,1.9c0.2,0.8,1,1.3,1.9,1.2c-1.4,0.6-2.7,1.5-3.7,2.6c-1.6,2.4-0.9,5.5,1.4,7.1c2.4,1.4,5.6,0.8,7.3-1.5
	c-0.3,1.2,0.2,2.5,1.4,3.1c5.4,2.9,8.2-1,8.9-5.7C786.1,238.6,787.2,234.8,781.8,232.1z"/>
<path class="st10" d="M837.8,313.1c-1.6-0.9-3.4-1.2-5.2-0.9c-1.8,0.3-3.2,1.9-3.3,3.7l-2.9-0.2c-0.3,0-0.7,0-1,0
	c-0.8,0.3-1.3,1.1-1.1,1.9c0.2,0.8,1,1.3,1.9,1.2c-1.4,0.6-2.7,1.5-3.7,2.6c-1.6,2.4-0.9,5.5,1.4,7.1c2.4,1.4,5.6,0.8,7.3-1.5
	c-0.3,1.2,0.2,2.5,1.4,3.1c5.4,2.9,8.2-1,8.9-5.7C842.1,319.6,843.2,315.8,837.8,313.1z"/>
<path class="st11" d="M837.8,313.1c-1.6-0.9-3.4-1.2-5.2-0.9c-1.8,0.3-3.2,1.9-3.3,3.7l-2.9-0.2c-0.3,0-0.7,0-1,0
	c-0.8,0.3-1.3,1.1-1.1,1.9c0.2,0.8,1,1.3,1.9,1.2c-1.4,0.6-2.7,1.5-3.7,2.6c-1.6,2.4-0.9,5.5,1.4,7.1c2.4,1.4,5.6,0.8,7.3-1.5
	c-0.3,1.2,0.2,2.5,1.4,3.1c5.4,2.9,8.2-1,8.9-5.7C842.1,319.6,843.2,315.8,837.8,313.1z"/>
<path class="st10" d="M751.7,134.2c0.9-1.6,1.3-3.4,1-5.2c-0.3-1.8-1.8-3.2-3.7-3.4l0.2-2.9c0.1-0.3,0.1-0.7,0-1
	c-0.2-0.9-1-1.4-1.9-1.2c-0.9,0.2-1.4,1-1.2,1.9l0,0c-0.5-1.4-1.4-2.7-2.6-3.7c-2.3-1.6-5.5-1-7.2,1.3c-1.4,2.4-0.8,5.6,1.4,7.3
	c-1.2-0.4-2.5,0.2-3.1,1.4c-3,5.4,1,8.2,5.6,9C745.2,138.5,749,139.6,751.7,134.2z"/>
<path class="st10" d="M745.7,99.2c0.9-1.6,1.3-3.4,1-5.2c-0.3-1.8-1.8-3.2-3.7-3.4l0.2-2.9c0.1-0.3,0.1-0.7,0-1
	c-0.2-0.9-1-1.4-1.9-1.2c-0.9,0.2-1.4,1-1.2,1.9l0,0c-0.5-1.4-1.4-2.7-2.6-3.7c-2.3-1.6-5.5-1-7.2,1.3c-1.4,2.4-0.8,5.6,1.4,7.3
	c-1.2-0.4-2.5,0.2-3.1,1.4c-3,5.4,1,8.2,5.6,9C739.2,103.5,743,104.6,745.7,99.2z"/>
<path class="st10" d="M595.8,387.1c-1.6-0.9-3.4-1.2-5.2-0.9c-1.8,0.3-3.2,1.9-3.3,3.7l-2.9-0.2c-0.3-0.1-0.7-0.1-1,0
	c-0.8,0.3-1.3,1.1-1.1,1.9c0.2,0.8,1,1.3,1.9,1.2c-1.4,0.6-2.7,1.5-3.7,2.6c-1.6,2.4-0.9,5.5,1.4,7.1c2.4,1.4,5.6,0.8,7.3-1.5
	c-0.3,1.2,0.2,2.5,1.4,3.1c5.4,2.9,8.2-1,8.9-5.7C600.1,393.6,601.2,389.8,595.8,387.1z"/>
<path class="st11" d="M595.8,387.1c-1.6-0.9-3.4-1.2-5.2-0.9c-1.8,0.3-3.2,1.9-3.3,3.7l-2.9-0.2c-0.3-0.1-0.7-0.1-1,0
	c-0.8,0.3-1.3,1.1-1.1,1.9c0.2,0.8,1,1.3,1.9,1.2c-1.4,0.6-2.7,1.5-3.7,2.6c-1.6,2.4-0.9,5.5,1.4,7.1c2.4,1.4,5.6,0.8,7.3-1.5
	c-0.3,1.2,0.2,2.5,1.4,3.1c5.4,2.9,8.2-1,8.9-5.7C600.1,393.6,601.2,389.8,595.8,387.1z"/>
<path class="st10" d="M559.7,385.2c0.9-1.6,1.3-3.4,1-5.2c-0.3-1.8-1.8-3.2-3.7-3.3l0.2-2.9c0.1-0.3,0.1-0.7,0-1
	c-0.2-0.9-1-1.4-1.9-1.2c-0.9,0.2-1.4,1-1.2,1.9c-0.5-1.4-1.4-2.7-2.6-3.7c-2.3-1.6-5.5-1-7.2,1.3c-1.4,2.4-0.8,5.6,1.4,7.3
	c-1.2-0.4-2.5,0.2-3.1,1.4c-3,5.4,1,8.2,5.6,9C553.2,389.5,557,390.6,559.7,385.2z"/>
<path class="st10" d="M607.7,330.2c0.9-1.6,1.3-3.4,1-5.2c-0.3-1.8-1.8-3.2-3.7-3.4l0.2-2.9c0.1-0.3,0.1-0.7,0-1
	c-0.2-0.9-1-1.4-1.9-1.2c-0.9,0.2-1.4,1-1.2,1.9l0,0c-0.5-1.4-1.4-2.7-2.6-3.7c-2.3-1.6-5.5-1-7.2,1.3c-1.4,2.4-0.8,5.6,1.4,7.3
	c-1.2-0.4-2.5,0.2-3.1,1.4c-3,5.4,1,8.2,5.6,9C601.2,334.5,605,335.6,607.7,330.2z"/>
<path class="st13" d="M530.9,348.3c-9.7-2.5-19.9-5-29.7-3c-4.4,0.9-8.5,2.7-12.8,4c-21.2,6.6-44.3,3.1-62.7-9.4
	c-10.2-7-20.8-17.3-32.9-14.5c-3.3,0.8-6.3,2.5-9.6,2.8c-6.2,0.7-12-3.3-18.2-4.3c-10.6-1.6-20.3,5.8-28.5,12.8l-43.1,36.9
	c-3.3,2.8-6.9,6.5-6,10.7c1.3,6.2,10.8,7,13.2,12.8c1.8,4.2-1.1,9.1-5,11.5s-8.5,3-12.8,4.5c-13.3,4.4-23.3,15.5-26.3,29.2
	c-0.8,3.6-1,7.3-2.4,10.7c-1.5,3.7-4.3,6.7-6.3,10.1c-8.9,14.9-3,34.7-9.8,50.7c-3.6,8.5-10.7,16.7-8.5,25.6
	c2.1,8.1,10.9,12.2,19,14.3c1,5.5-1,9.4-5,13.3c33.5,13.8,69.6,27.9,105.1,20.8c12.2-2.4,24.1-7.3,36.5-7.1
	c8.8,0.1,17.6,2.9,26.4,2.2c18.6-1.3,35.7-17.2,53.7-12.4c-5.4,0.4-7.4,8.3-4.2,12.7s9.1,5.8,14.5,6.3s11.2,0.6,15.9,3.3
	c-3.6,7.4-16.3,10-15.1,18.2c0.5,2.9,2.8,5.2,5.2,7c24.3,18.6,57.7,16.8,88,20c22.4,2.3,44.3,7.8,66.6,10.7
	c35.6,4.7,71.8,2.8,107.7,0.8c6.5-0.3,13.8-1.1,18-6.1c5.6-6.7,2.5-16.5,1.8-25.2c-2.7-33.8,34.3-57.1,44.6-89.4
	c4-12.6,3.8-26.2,3.1-39.4c-1.6-29.8-6.3-61.3-25.3-84.4c-15.7-19-39.1-29.7-62.4-37.5c-14.8-5-30.4-9.1-46-7.6
	c-26.2,2.5-52.7,20.4-76.9,10c-6.4-2.7-11.8-7.3-17.9-10.7C566.8,350.5,548.7,352.9,530.9,348.3z"/>
<g class="st14">
	<path d="M666.2,622.9c-22.3-2.9-44.2-8.4-66.6-10.7c-30.4-3.2-63.8-1.4-88-20c-2.4-1.8-4.7-4-5.2-7c-1.2-8.1,11.5-10.7,15.1-18.2
		c-4.7-2.8-10.4-2.8-15.9-3.3s-11.3-1.9-14.5-6.3s-1.2-12.3,4.2-12.7c-18-4.8-35.1,11.1-53.7,12.4c-8.8,0.6-17.5-2.1-26.4-2.2
		c-12.4-0.2-24.3,4.7-36.5,7.1c-35.6,7-71.6-7-105.1-20.8c4-4,5.9-7.8,5-13.3c-8-2.1-16.9-6.3-19-14.3c-2.3-8.9,4.9-17.1,8.5-25.6
		c6.7-16,0.9-35.8,9.8-50.7c2-3.4,4.8-6.4,6.3-10.1c1.4-3.4,1.6-7.1,2.4-10.7c0.3-1.6,0.8-3.1,1.3-4.6c-1.7,0.5-3.4,0.9-5,1.4
		c-13.3,4.4-23.3,15.5-26.3,29.2c-0.8,3.6-1,7.3-2.4,10.7c-1.5,3.7-4.3,6.7-6.3,10.1c-8.9,14.9-3,34.7-9.8,50.7
		c-3.6,8.5-10.7,16.7-8.5,25.6c2.1,8.1,10.9,12.2,19,14.3c1,5.5-1,9.4-5,13.3c33.6,13.8,69.6,27.9,105.1,20.8
		c12.2-2.4,24.1-7.3,36.5-7.1c8.8,0.1,17.6,2.9,26.4,2.2c18.6-1.3,35.7-17.2,53.7-12.4c-5.4,0.4-7.4,8.3-4.2,12.7s9.1,5.8,14.5,6.3
		s11.2,0.6,15.9,3.3c-3.6,7.4-16.3,10-15.1,18.2c0.5,2.9,2.8,5.2,5.2,7c24.3,18.6,57.7,16.8,88,20c22.4,2.3,44.3,7.8,66.6,10.7
		c35.6,4.7,71.8,2.8,107.7,0.8c6.5-0.3,13.8-1.1,18-6.1c4.3-5.2,3.4-12.4,2.5-19.4C731.6,625.9,698.7,627.1,666.2,622.9z"/>
	<path d="M299.2,395c4-3.5,8.6-6.2,13.6-7.8c4.3-1.4,9-2.1,12.8-4.5s6.8-7.3,5-11.5c-2.4-5.8-11.9-6.7-13.2-12.8
		c-0.6-2.8,0.8-5.5,2.9-7.7l-26.9,23c-3.3,2.8-6.9,6.5-6,10.7C288.6,389.7,295.6,391.1,299.2,395z"/>
</g>
<path class="st10" d="M389.7,375.2c0.9-1.6,1.3-3.4,1-5.2c-0.3-1.8-1.8-3.2-3.7-3.3l0.2-2.9c0-0.3,0-0.7,0-1c-0.2-0.9-1-1.4-1.9-1.2
	c-0.9,0.2-1.4,1-1.2,1.9c-0.5-1.4-1.4-2.7-2.6-3.7c-2.3-1.6-5.5-1-7.2,1.3c-1.4,2.4-0.8,5.6,1.4,7.3c-1.2-0.4-2.5,0.2-3.1,1.4
	c-3,5.4,1,8.2,5.6,9C383.2,379.5,387,380.6,389.7,375.2z"/>
<path class="st10" d="M535.7,569.2c0.9-1.6,1.3-3.4,1-5.2c-0.3-1.8-1.8-3.2-3.7-3.3l0.2-2.9c0.1-0.3,0.1-0.7,0-1
	c-0.2-0.9-1-1.4-1.9-1.2c-0.9,0.2-1.4,1-1.2,1.9l0,0c-0.5-1.4-1.4-2.7-2.6-3.7c-2.3-1.6-5.5-1-7.2,1.3c-1.4,2.4-0.8,5.6,1.4,7.3
	c-1.2-0.4-2.5,0.2-3.1,1.4c-3,5.4,1,8.2,5.6,9C529.2,573.5,533,574.6,535.7,569.2z"/>
<path class="st10" d="M635.7,378.2c0.9-1.6,1.3-3.4,1-5.2c-0.3-1.8-1.8-3.2-3.7-3.3l0.2-2.9c0.1-0.3,0.1-0.7,0-1
	c-0.2-0.9-1-1.4-1.9-1.2c-0.9,0.2-1.4,1-1.2,1.9c-0.5-1.4-1.4-2.7-2.6-3.7c-2.3-1.6-5.5-1-7.2,1.3c-1.4,2.4-0.8,5.6,1.4,7.3
	c-1.2-0.4-2.5,0.2-3.1,1.4c-3,5.4,1,8.2,5.6,9C629.2,382.5,633,383.6,635.7,378.2z"/>
<path class="st10" d="M654.5,376c1.7-0.7,3-2,3.9-3.6c0.8-1.7,0.4-3.7-1-4.9l1.8-2.2c0.2-0.3,0.4-0.5,0.6-0.9c0.3-0.8,0-1.7-0.8-2.1
	c-0.8-0.3-1.7,0-2.1,0.8l0,0c0.4-1.5,0.4-3,0.1-4.5c-1-2.7-3.9-4.1-6.6-3.1c-2.6,1.1-3.9,4-3.1,6.7c-0.8-1-2.2-1.3-3.3-0.7
	c-5.6,2.6-4,7.2-0.8,10.5C646.7,375.7,649.1,378.8,654.5,376z"/>
<path class="st10" d="M437.8,381.1c-1.6-0.9-3.4-1.2-5.2-0.9c-1.8,0.3-3.2,1.9-3.3,3.7l-2.9-0.2c-0.3-0.1-0.7-0.1-1,0
	c-0.8,0.3-1.3,1.1-1.1,1.9c0.2,0.8,1,1.3,1.9,1.2c-1.4,0.6-2.7,1.5-3.7,2.6c-1.6,2.4-0.9,5.5,1.4,7.1c2.4,1.4,5.6,0.8,7.3-1.5
	c-0.3,1.2,0.2,2.5,1.4,3.1c5.4,2.9,8.2-1,8.9-5.7C442.1,387.6,443.2,383.8,437.8,381.1z"/>
<path class="st11" d="M437.8,381.1c-1.6-0.9-3.4-1.2-5.2-0.9c-1.8,0.3-3.2,1.9-3.3,3.7l-2.9-0.2c-0.3-0.1-0.7-0.1-1,0
	c-0.8,0.3-1.3,1.1-1.1,1.9c0.2,0.8,1,1.3,1.9,1.2c-1.4,0.6-2.7,1.5-3.7,2.6c-1.6,2.4-0.9,5.5,1.4,7.1c2.4,1.4,5.6,0.8,7.3-1.5
	c-0.3,1.2,0.2,2.5,1.4,3.1c5.4,2.9,8.2-1,8.9-5.7C442.1,387.6,443.2,383.8,437.8,381.1z"/>
<path class="st10" d="M526.8,455.5c0.3-1.8,0-3.6-0.9-5.2c-0.9-1.6-2.8-2.4-4.6-1.9l-0.8-2.8c-0.1-0.4-0.2-0.7-0.4-1
	c-0.5-0.7-1.5-0.9-2.2-0.5c-0.7,0.5-0.9,1.5-0.5,2.2c-1-1.2-2.3-2-3.7-2.6c-2.8-0.7-5.5,1-6.3,3.7c-0.5,2.8,1.1,5.5,3.8,6.3
	c-1.3,0.1-2.3,1.1-2.4,2.3c-1,6.1,3.7,7.4,8.3,6.5C522.2,461.8,526.1,461.5,526.8,455.5z"/>
<path class="st11" d="M526.8,455.5c0.3-1.8,0-3.6-0.9-5.2c-0.9-1.6-2.8-2.4-4.6-1.9l-0.8-2.8c-0.1-0.4-0.2-0.7-0.4-1
	c-0.5-0.7-1.5-0.9-2.2-0.5c-0.7,0.5-0.9,1.5-0.5,2.2c-1-1.2-2.3-2-3.7-2.6c-2.8-0.7-5.5,1-6.3,3.7c-0.5,2.8,1.1,5.5,3.8,6.3
	c-1.3,0.1-2.3,1.1-2.4,2.3c-1,6.1,3.7,7.4,8.3,6.5C522.2,461.8,526.1,461.5,526.8,455.5z"/>
<path class="st10" d="M646.8,364.5c0.3-1.8,0-3.6-0.9-5.2c-0.9-1.6-2.8-2.4-4.6-1.9l-0.8-2.8c-0.1-0.4-0.2-0.7-0.4-1
	c-0.5-0.7-1.5-0.9-2.2-0.5c-0.7,0.5-0.9,1.5-0.5,2.2l0,0c-1-1.2-2.3-2-3.7-2.6c-2.8-0.7-5.5,1-6.3,3.7c-0.5,2.8,1.1,5.5,3.8,6.3
	c-1.3,0.1-2.3,1.1-2.4,2.3c-1,6.1,3.7,7.4,8.3,6.5C642.2,370.8,646.1,370.5,646.8,364.5z"/>
<path class="st11" d="M646.8,364.5c0.3-1.8,0-3.6-0.9-5.2c-0.9-1.6-2.8-2.4-4.6-1.9l-0.8-2.8c-0.1-0.4-0.2-0.7-0.4-1
	c-0.5-0.7-1.5-0.9-2.2-0.5c-0.7,0.5-0.9,1.5-0.5,2.2l0,0c-1-1.2-2.3-2-3.7-2.6c-2.8-0.7-5.5,1-6.3,3.7c-0.5,2.8,1.1,5.5,3.8,6.3
	c-1.3,0.1-2.3,1.1-2.4,2.3c-1,6.1,3.7,7.4,8.3,6.5C642.2,370.8,646.1,370.5,646.8,364.5z"/>
</svg>
